<svg width="48" height="48" viewBox="0 0 48 48" fill="none" xmlns="http://www.w3.org/2000/svg">
<g id="Check">
<path id="Vector" d="M46.3289 14.3718C46.7028 13.9957 46.912 13.4865 46.9105 12.9562C46.909 12.4258 46.6969 11.9178 46.3209 11.5438L43.0379 8.27983C42.6618 7.90594 42.1526 7.69675 41.6223 7.69825C41.092 7.69975 40.5839 7.91182 40.2099 8.28783L16.8349 31.7998L7.76294 22.7808C7.38683 22.4069 6.87761 22.1977 6.34728 22.1992C5.81695 22.2007 5.30893 22.4128 4.93494 22.7888L1.67094 26.0718C1.29706 26.4479 1.08786 26.9572 1.08936 27.4875C1.09086 28.0178 1.30293 28.5258 1.67894 28.8998L15.4499 42.5908C15.8261 42.9647 16.3353 43.1739 16.8656 43.1724C17.3959 43.1709 17.9039 42.9588 18.2779 42.5828L46.3289 14.3718Z" fill="#0059FF"/>
</g>
</svg>
