<svg width="48" height="48" viewBox="0 0 48 48" fill="none" xmlns="http://www.w3.org/2000/svg">
<g id="File">
<path id="Vector" d="M43.669 10.7188L39.288 6.19179L34.342 1.08079C34.129 0.860486 33.8739 0.685258 33.5918 0.56552C33.3097 0.445783 33.0065 0.383982 32.7 0.383789H5.97601C5.67546 0.383658 5.37783 0.442742 5.10013 0.557666C4.82242 0.67259 4.57007 0.841102 4.35751 1.05358C4.14494 1.26605 3.97632 1.51832 3.86127 1.79598C3.74623 2.07364 3.68701 2.37124 3.68701 2.67179V45.3278C3.68701 45.6283 3.74623 45.9259 3.86127 46.2036C3.97632 46.4813 4.14494 46.7335 4.35751 46.946C4.57007 47.1585 4.82242 47.327 5.10013 47.4419C5.37783 47.5568 5.67546 47.6159 5.97601 47.6158H42.024C42.3246 47.6159 42.6222 47.5568 42.8999 47.4419C43.1776 47.327 43.43 47.1585 43.6425 46.946C43.8551 46.7335 44.0237 46.4813 44.1388 46.2036C44.2538 45.9259 44.313 45.6283 44.313 45.3278V12.3108C44.313 11.7167 44.0821 11.1458 43.669 10.7188ZM34.82 12.6458C34.2129 12.6458 33.6307 12.4046 33.2014 11.9754C32.7722 11.5461 32.531 10.9639 32.531 10.3568V1.64379L37.556 6.83679L43.177 12.6458H34.82Z" fill="#0059FF"/>
</g>
</svg>
