<svg width="26" height="26" viewBox="0 0 26 26" fill="none" xmlns="http://www.w3.org/2000/svg">
<g id="Unlock" clip-path="url(#clip0_658_21875)">
<path id="Vector" d="M10.543 2.95215H3.8004C3.4178 2.95229 3.03897 3.0278 2.68556 3.17438C2.33215 3.32095 2.01108 3.53572 1.74069 3.80641C1.47029 4.07709 1.25588 4.3984 1.10969 4.75197C0.963496 5.10554 0.888395 5.48445 0.888673 5.86705V11.0126H3.40801V6.61111C3.40801 6.35361 3.51031 6.10665 3.69239 5.92456C3.87447 5.74248 4.12143 5.64018 4.37894 5.64018H9.96443C10.092 5.64004 10.2184 5.66506 10.3363 5.71379C10.4542 5.76252 10.5614 5.83401 10.6517 5.92419C10.7419 6.01436 10.8135 6.12144 10.8624 6.23931C10.9113 6.35718 10.9364 6.48352 10.9364 6.61111V11.0126H13.4568V5.86705C13.4571 5.48427 13.3819 5.10519 13.2356 4.75148C13.0893 4.39777 12.8747 4.07637 12.604 3.80566C12.3334 3.53494 12.0121 3.32022 11.6585 3.17377C11.3048 3.02732 10.9257 2.95201 10.543 2.95215Z" fill="#8F9098"/>
<path id="Vector_2" d="M24.1927 11.0121H9.89474C9.59607 10.9949 9.3027 11.0964 9.07854 11.2945C8.85437 11.4926 8.71759 11.7713 8.698 12.0698V22.9732C8.71759 23.2717 8.85437 23.5504 9.07854 23.7485C9.3027 23.9466 9.59607 24.0481 9.89474 24.0308H24.1927C24.4913 24.0481 24.7847 23.9466 25.0089 23.7485C25.233 23.5504 25.3698 23.2717 25.3894 22.9732V12.0703C25.3699 11.7717 25.2332 11.4929 25.009 11.2947C24.7849 11.0965 24.4914 10.9949 24.1927 11.0121ZM17.9171 17.0466V18.485C17.9092 18.7112 17.8138 18.9254 17.651 19.0827C17.4883 19.2399 17.2708 19.3277 17.0445 19.3277C16.8182 19.3277 16.6007 19.2399 16.438 19.0827C16.2752 18.9254 16.1798 18.7112 16.1719 18.485V17.0466C15.9507 16.8664 15.7907 16.6222 15.7138 16.3475C15.6369 16.0727 15.647 15.7809 15.7426 15.5121C15.8382 15.2432 16.0146 15.0106 16.2478 14.8461C16.4809 14.6816 16.7592 14.5933 17.0445 14.5933C17.3298 14.5933 17.6081 14.6816 17.8412 14.8461C18.0743 15.0106 18.2508 15.2432 18.3464 15.5121C18.442 15.7809 18.4521 16.0727 18.3752 16.3475C18.2983 16.6222 18.1383 16.8664 17.9171 17.0466Z" fill="#8F9098"/>
</g>
<defs>
<clipPath id="clip0_658_21875">
<rect width="25.3838" height="25.3838" fill="white" transform="translate(0.359863 0.466309)"/>
</clipPath>
</defs>
</svg>
