<svg width="48" height="48" viewBox="0 0 48 48" fill="none" xmlns="http://www.w3.org/2000/svg">
<g id="Book">
<path id="Vector" d="M14.217 5.96698H2.42602C2.05321 5.96724 1.69574 6.11546 1.43212 6.37908C1.1685 6.6427 1.02028 7.00017 1.02002 7.37298V41.165L4.13102 40.42C9.63995 39.102 15.3821 39.102 20.891 40.42L23.342 41.056V15.643C23.452 6.53598 19.621 5.96698 14.217 5.96698Z" fill="#0059FF"/>
<path id="Vector_2" d="M33.7831 5.96698H45.5741C45.9469 5.96724 46.3043 6.11546 46.568 6.37908C46.8316 6.6427 46.9798 7.00017 46.9801 7.37298V41.165L43.8691 40.42C38.3601 39.102 32.618 39.102 27.1091 40.42L24.6581 41.056V15.643C24.5481 6.53598 28.3791 5.96698 33.7831 5.96698Z" fill="#0059FF"/>
</g>
</svg>
