<svg width="15" height="15" viewBox="0 0 15 15" fill="none" xmlns="http://www.w3.org/2000/svg">
<g id="Chevron-Down">
<path id="Vector" d="M1.20481 5.13752C1.15071 5.08344 1.1078 5.01924 1.07852 4.94858C1.04925 4.87792 1.03418 4.80218 1.03418 4.7257C1.03418 4.64921 1.04925 4.57348 1.07852 4.50282C1.1078 4.43215 1.15071 4.36795 1.20481 4.31388L1.94045 3.57824C1.99453 3.5241 2.05874 3.48116 2.12943 3.45185C2.20012 3.42255 2.27589 3.40747 2.35241 3.40747C2.42893 3.40747 2.5047 3.42255 2.57538 3.45185C2.64607 3.48116 2.71029 3.5241 2.76437 3.57824L7.49765 8.31209L12.2312 3.57852C12.2853 3.52438 12.3495 3.48144 12.4202 3.45214C12.4909 3.42284 12.5667 3.40775 12.6432 3.40775C12.7197 3.40775 12.7955 3.42284 12.8662 3.45214C12.9368 3.48144 13.0011 3.52438 13.0551 3.57852L13.7908 4.31416C13.8449 4.36824 13.8878 4.43244 13.9171 4.5031C13.9463 4.57376 13.9614 4.6495 13.9614 4.72598C13.9614 4.80247 13.9463 4.8782 13.9171 4.94886C13.8878 5.01952 13.8449 5.08373 13.7908 5.1378L7.91273 11.0153C7.85865 11.0694 7.79445 11.1123 7.72379 11.1416C7.65313 11.1708 7.57739 11.1859 7.50091 11.1859C7.42442 11.1859 7.34869 11.1708 7.27803 11.1416C7.20736 11.1123 7.14316 11.0694 7.08909 11.0153L1.20481 5.13752Z" fill="white"/>
</g>
</svg>
