<svg width="21" height="22" viewBox="0 0 21 22" fill="none" xmlns="http://www.w3.org/2000/svg">
<g id="Lock" clip-path="url(#clip0_658_21015)">
<path id="Vector" d="M13.9148 0.86084H7.49967C6.76504 0.86084 6.06049 1.15267 5.54103 1.67213C5.02157 2.1916 4.72974 2.89614 4.72974 3.63077V8.52758H7.12764V4.33987C7.12764 4.09484 7.22498 3.85985 7.39824 3.68659C7.5715 3.51333 7.80649 3.41599 8.05152 3.41599H13.3647C13.6094 3.41645 13.844 3.51398 14.0169 3.68719C14.1897 3.86041 14.2868 4.09514 14.2868 4.33987V8.52758H16.686V3.63162C16.6861 3.26769 16.6145 2.9073 16.4753 2.57106C16.3361 2.23481 16.1319 1.9293 15.8746 1.67198C15.6172 1.41466 15.3117 1.21058 14.9754 1.0714C14.6392 0.932223 14.2788 0.860672 13.9148 0.86084Z" fill="#494A4F"/>
<path id="Vector_2" d="M17.5093 8.52766H3.90556C3.62137 8.51131 3.34223 8.60793 3.12896 8.79646C2.91568 8.98499 2.78555 9.25016 2.76691 9.53421V19.9074C2.78555 20.1914 2.9157 20.4565 3.12899 20.645C3.34227 20.8335 3.62141 20.93 3.90556 20.9135H17.5093C17.7934 20.93 18.0725 20.8334 18.2857 20.645C18.499 20.4565 18.629 20.1914 18.6476 19.9074V9.53421C18.629 9.2502 18.499 8.98503 18.2858 8.79648C18.0726 8.60794 17.7935 8.51131 17.5093 8.52766ZM11.5378 14.2687V15.6374C11.5378 15.8578 11.4502 16.0692 11.2944 16.225C11.1386 16.3809 10.9272 16.4684 10.7068 16.4684C10.4864 16.4684 10.2751 16.3809 10.1192 16.225C9.96338 16.0692 9.87583 15.8578 9.87583 15.6374V14.2687C9.66556 14.0971 9.51352 13.8648 9.44056 13.6034C9.3676 13.342 9.37731 13.0645 9.46835 12.8089C9.55938 12.5533 9.72728 12.3321 9.94902 12.1757C10.1708 12.0193 10.4355 11.9353 10.7068 11.9353C10.9782 11.9353 11.2429 12.0193 11.4646 12.1757C11.6863 12.3321 11.8542 12.5533 11.9453 12.8089C12.0363 13.0645 12.046 13.342 11.973 13.6034C11.9001 13.8648 11.7481 14.0971 11.5378 14.2687Z" fill="#494A4F"/>
</g>
<defs>
<clipPath id="clip0_658_21015">
<rect width="20.4549" height="20.4549" fill="white" transform="translate(0.479797 0.659668)"/>
</clipPath>
</defs>
</svg>
